G04*
G04 #@! TF.GenerationSoftware,Altium Limited,CircuitMaker,2.2.1 (2.2.1.6)*
G04*
G04 Layer_Color=15132400*
%FSLAX24Y24*%
%MOIN*%
G70*
G04*
G04 #@! TF.SameCoordinates,CDB163E5-030E-4182-BE1C-8E83F9AF5388*
G04*
G04*
G04 #@! TF.FilePolarity,Positive*
G04*
G01*
G75*
%ADD10C,0.0079*%
%ADD11C,0.0100*%
%ADD12C,0.0070*%
%ADD13C,0.0080*%
D10*
X16612Y11750D02*
G03*
X16362Y11750I-125J0D01*
G01*
X16916Y11750D02*
X16916Y13750D01*
X16058Y13750D02*
X16916Y13750D01*
X16058Y11750D02*
X16058Y13750D01*
X16058Y11750D02*
X16362Y11750D01*
X16612Y11750D02*
X16916Y11750D01*
D11*
X17500Y11550D02*
G03*
X17500Y11550I-50J0D01*
G01*
X8760Y15471D02*
X13563Y15471D01*
X8760Y9329D02*
X13563Y9329D01*
X8760Y9329D02*
X8760Y15471D01*
X18437Y9304D02*
X23240Y9304D01*
X18437Y15446D02*
X23240Y15446D01*
X23240Y9304D02*
X23240Y15446D01*
D12*
X14800Y10250D02*
X14800Y13500D01*
X14650Y13500D02*
X14800Y13500D01*
X15170Y10470D02*
X15120Y10520D01*
X15020Y10520D01*
X14970Y10470D01*
X14970Y10270D01*
X15020Y10220D01*
X15120Y10220D01*
X15170Y10270D01*
X15170Y10370D01*
X15070Y10370D01*
X15270Y10220D02*
X15270Y10520D01*
X15470Y10220D01*
X15470Y10520D01*
X15570Y10520D02*
X15570Y10220D01*
X15720Y10220D01*
X15770Y10270D01*
X15770Y10470D01*
X15720Y10520D01*
X15570Y10520D01*
X15170Y11520D02*
X14970Y11520D01*
X14970Y11370D01*
X15070Y11420D01*
X15120Y11420D01*
X15170Y11370D01*
X15170Y11270D01*
X15120Y11220D01*
X15020Y11220D01*
X14970Y11270D01*
X15270Y11520D02*
X15270Y11320D01*
X15370Y11220D01*
X15470Y11320D01*
X15470Y11520D01*
X14970Y11020D02*
X14970Y10770D01*
X15020Y10720D01*
X15120Y10720D01*
X15170Y10770D01*
X15170Y11020D01*
X15270Y10720D02*
X15270Y11020D01*
X15420Y11020D01*
X15470Y10970D01*
X15470Y10870D01*
X15420Y10820D01*
X15270Y10820D01*
X15570Y11020D02*
X15570Y10720D01*
X15720Y10720D01*
X15770Y10770D01*
X15770Y10970D01*
X15720Y11020D01*
X15570Y11020D01*
X15870Y11020D02*
X15970Y11020D01*
X15920Y11020D01*
X15920Y10720D01*
X15870Y10720D01*
X15970Y10720D01*
X16750Y9500D02*
X16750Y9800D01*
X16900Y9800D01*
X16950Y9750D01*
X16950Y9650D01*
X16900Y9600D01*
X16750Y9600D01*
X16850Y9600D02*
X16950Y9500D01*
X17050Y9500D02*
X17150Y9500D01*
X17100Y9500D01*
X17100Y9800D01*
X17050Y9750D01*
X16500Y10850D02*
X16450Y10900D01*
X16350Y10900D01*
X16300Y10850D01*
X16300Y10650D01*
X16350Y10600D01*
X16450Y10600D01*
X16500Y10650D01*
X16600Y10600D02*
X16700Y10600D01*
X16650Y10600D01*
X16650Y10900D01*
X16600Y10850D01*
D13*
X15130Y14180D02*
X15130Y14540D01*
X15310Y14540D01*
X15370Y14480D01*
X15370Y14360D01*
X15310Y14300D01*
X15130Y14300D01*
X15250Y14300D02*
X15370Y14180D01*
X15730Y14540D02*
X15490Y14540D01*
X15490Y14180D01*
X15730Y14180D01*
X15490Y14360D02*
X15610Y14360D01*
X15850Y14540D02*
X15850Y14300D01*
X15970Y14180D01*
X16090Y14300D01*
X16090Y14540D01*
X16570Y14180D02*
X16570Y14420D01*
X16689Y14540D01*
X16809Y14420D01*
X16809Y14180D01*
X16809Y14360D01*
X16570Y14360D01*
X13180Y14470D02*
X13580Y14470D01*
X13580Y14270D01*
X13513Y14203D01*
X13380Y14203D01*
X13313Y14270D01*
X13313Y14470D01*
X13580Y13870D02*
X13580Y14003D01*
X13513Y14070D01*
X13247Y14070D01*
X13180Y14003D01*
X13180Y13870D01*
X13247Y13804D01*
X13513Y13804D01*
X13580Y13870D01*
X13580Y13670D02*
X13180Y13670D01*
X13313Y13537D01*
X13180Y13404D01*
X13580Y13404D01*
X13580Y13004D02*
X13580Y13270D01*
X13180Y13270D01*
X13180Y13004D01*
X13380Y13270D02*
X13380Y13137D01*
X13180Y12871D02*
X13580Y12871D01*
X13580Y12671D01*
X13513Y12604D01*
X13380Y12604D01*
X13313Y12671D01*
X13313Y12871D01*
X13313Y12737D02*
X13180Y12604D01*
X13580Y12071D02*
X13180Y12071D01*
X13180Y11871D01*
X13247Y11804D01*
X13313Y11804D01*
X13380Y11871D01*
X13380Y12071D01*
X13380Y11871D01*
X13447Y11804D01*
X13513Y11804D01*
X13580Y11871D01*
X13580Y12071D01*
X13580Y11471D02*
X13580Y11604D01*
X13513Y11671D01*
X13247Y11671D01*
X13180Y11604D01*
X13180Y11471D01*
X13247Y11404D01*
X13513Y11404D01*
X13580Y11471D01*
X13180Y11271D02*
X13447Y11271D01*
X13580Y11138D01*
X13447Y11004D01*
X13180Y11004D01*
X13380Y11004D01*
X13380Y11271D01*
X13180Y10871D02*
X13580Y10871D01*
X13580Y10671D01*
X13513Y10605D01*
X13380Y10605D01*
X13313Y10671D01*
X13313Y10871D01*
X13313Y10738D02*
X13180Y10605D01*
X13580Y10471D02*
X13180Y10471D01*
X13180Y10271D01*
X13247Y10205D01*
X13513Y10205D01*
X13580Y10271D01*
X13580Y10471D01*
X18370Y10497D02*
X18370Y10230D01*
X18570Y10230D01*
X18570Y10363D01*
X18570Y10230D01*
X18770Y10230D01*
X18770Y10630D02*
X18370Y10630D01*
X18370Y10830D01*
X18437Y10896D01*
X18570Y10896D01*
X18637Y10830D01*
X18637Y10630D01*
X18637Y10763D02*
X18770Y10896D01*
X18370Y11230D02*
X18370Y11096D01*
X18437Y11030D01*
X18703Y11030D01*
X18770Y11096D01*
X18770Y11230D01*
X18703Y11296D01*
X18437Y11296D01*
X18370Y11230D01*
X18770Y11430D02*
X18370Y11430D01*
X18770Y11696D01*
X18370Y11696D01*
X18370Y11829D02*
X18370Y12096D01*
X18370Y11963D01*
X18770Y11963D01*
X18770Y12629D02*
X18370Y12629D01*
X18370Y12829D01*
X18437Y12896D01*
X18570Y12896D01*
X18637Y12829D01*
X18637Y12629D01*
X18770Y13029D02*
X18503Y13029D01*
X18370Y13162D01*
X18503Y13296D01*
X18770Y13296D01*
X18570Y13296D01*
X18570Y13029D01*
X18770Y13429D02*
X18370Y13429D01*
X18770Y13696D01*
X18370Y13696D01*
X18370Y14095D02*
X18370Y13829D01*
X18770Y13829D01*
X18770Y14095D01*
X18570Y13829D02*
X18570Y13962D01*
X18370Y14229D02*
X18770Y14229D01*
X18770Y14495D01*
X13730Y15190D02*
X13730Y14830D01*
X13730Y14950D01*
X13970Y15190D01*
X13790Y15010D01*
X13970Y14830D01*
X14330Y15190D02*
X14090Y15190D01*
X14090Y14830D01*
X14330Y14830D01*
X14090Y15010D02*
X14210Y15010D01*
X14690Y15130D02*
X14630Y15190D01*
X14510Y15190D01*
X14450Y15130D01*
X14450Y14890D01*
X14510Y14830D01*
X14630Y14830D01*
X14690Y14890D01*
X14690Y15010D01*
X14570Y15010D01*
X15050Y15190D02*
X14810Y15190D01*
X14810Y14830D01*
X15050Y14830D01*
X14810Y15010D02*
X14930Y15010D01*
X15170Y14830D02*
X15170Y15190D01*
X15349Y15190D01*
X15409Y15130D01*
X15409Y15010D01*
X15349Y14950D01*
X15170Y14950D01*
X15289Y14950D02*
X15409Y14830D01*
X15529Y14830D02*
X15529Y15070D01*
X15649Y15190D01*
X15769Y15070D01*
X15769Y14830D01*
X15769Y15010D01*
X15529Y15010D01*
X15889Y15190D02*
X16129Y15190D01*
X16009Y15190D01*
X16009Y14830D01*
X16429Y15190D02*
X16309Y15190D01*
X16249Y15130D01*
X16249Y14890D01*
X16309Y14830D01*
X16429Y14830D01*
X16489Y14890D01*
X16489Y15130D01*
X16429Y15190D01*
X16609Y14830D02*
X16609Y15190D01*
X16789Y15190D01*
X16849Y15130D01*
X16849Y15010D01*
X16789Y14950D01*
X16609Y14950D01*
X16729Y14950D02*
X16849Y14830D01*
X17329Y14830D02*
X17329Y15190D01*
X17449Y15070D01*
X17569Y15190D01*
X17569Y14830D01*
X17869Y15190D02*
X17749Y15190D01*
X17689Y15130D01*
X17689Y14890D01*
X17749Y14830D01*
X17869Y14830D01*
X17929Y14890D01*
X17929Y15130D01*
X17869Y15190D01*
X18049Y15190D02*
X18049Y14830D01*
X18229Y14830D01*
X18289Y14890D01*
X18289Y15130D01*
X18229Y15190D01*
X18049Y15190D01*
M02*
