G04*
G04 #@! TF.GenerationSoftware,Altium Limited,CircuitMaker,2.2.1 (2.2.1.6)*
G04*
G04 Layer_Physical_Order=1*
G04 Layer_Color=25308*
%FSLAX24Y24*%
%MOIN*%
G70*
G04*
G04 #@! TF.SameCoordinates,D96103DE-5CF1-4447-99B2-040B1386396B*
G04*
G04*
G04 #@! TF.FilePolarity,Positive*
G04*
G01*
G75*
%ADD11C,0.0100*%
%ADD14R,0.0610X0.0236*%
%ADD15R,0.0276X0.0335*%
%ADD16R,0.0256X0.0354*%
%ADD17C,0.0400*%
%ADD27C,0.0200*%
%ADD28C,0.0300*%
%ADD29O,0.0900X0.0700*%
%ADD30R,0.0900X0.0700*%
%ADD31R,0.0700X0.0700*%
%ADD32C,0.0700*%
%ADD33C,0.0250*%
G36*
X23250Y9350D02*
X8750Y9350D01*
X8750Y15450D01*
X23250Y15450D01*
X23250Y9350D01*
X23250Y9350D02*
G37*
%LPC*%
G36*
X18600Y14853D02*
X12963Y14853D01*
X12904Y14841D01*
X12855Y14808D01*
X12814Y14767D01*
X12717Y14807D01*
X12600Y14822D01*
X12400Y14822D01*
X12283Y14807D01*
X12173Y14762D01*
X12079Y14689D01*
X12007Y14595D01*
X11962Y14486D01*
X11946Y14369D01*
X11962Y14251D01*
X12007Y14142D01*
X12079Y14048D01*
X12173Y13975D01*
X12283Y13930D01*
X12400Y13915D01*
X12600Y13915D01*
X12717Y13930D01*
X12827Y13975D01*
X12921Y14048D01*
X12993Y14142D01*
X13038Y14251D01*
X13054Y14369D01*
X13038Y14486D01*
X13034Y14497D01*
X13067Y14547D01*
X16666Y14547D01*
X16687Y14497D01*
X16595Y14406D01*
X16540Y14323D01*
X16521Y14226D01*
X16521Y12000D01*
X16521Y11152D01*
X16502Y11138D01*
X16479Y11150D01*
X16224Y11150D01*
X15996Y11150D01*
X15996Y10923D01*
X15954Y10905D01*
X13956Y10905D01*
X13605Y11256D01*
X13605Y12400D01*
X13605Y13144D01*
X13654Y13193D01*
X13700Y13174D01*
X13700Y13050D01*
X14600Y13050D01*
X14600Y13946D01*
X15066Y13946D01*
X15220Y13792D01*
X15220Y13718D01*
X15019Y13718D01*
X15019Y13282D01*
X15829Y13282D01*
X15829Y13718D01*
X15628Y13718D01*
X15628Y13876D01*
X15612Y13954D01*
X15568Y14020D01*
X15294Y14294D01*
X15228Y14338D01*
X15150Y14354D01*
X13450Y14354D01*
X13372Y14338D01*
X13306Y14294D01*
X12800Y13788D01*
X12717Y13823D01*
X12600Y13838D01*
X12400Y13838D01*
X12283Y13823D01*
X12173Y13777D01*
X12079Y13705D01*
X12007Y13611D01*
X11962Y13502D01*
X11946Y13384D01*
X11962Y13267D01*
X12007Y13157D01*
X12079Y13063D01*
X12173Y12991D01*
X12283Y12946D01*
X12400Y12930D01*
X12600Y12930D01*
X12717Y12946D01*
X12827Y12991D01*
X12916Y13060D01*
X12946Y13079D01*
X12979Y13129D01*
X12981Y13142D01*
X12993Y13157D01*
X13038Y13267D01*
X13054Y13384D01*
X13044Y13456D01*
X13534Y13946D01*
X13700Y13946D01*
X13700Y13755D01*
X13600Y13755D01*
X13502Y13736D01*
X13420Y13680D01*
X13170Y13430D01*
X13115Y13348D01*
X13095Y13250D01*
X13095Y12655D01*
X12972Y12655D01*
X12921Y12721D01*
X12827Y12793D01*
X12717Y12838D01*
X12600Y12854D01*
X12400Y12854D01*
X12283Y12838D01*
X12173Y12793D01*
X12079Y12721D01*
X12007Y12627D01*
X11962Y12517D01*
X11946Y12400D01*
X11962Y12283D01*
X12007Y12173D01*
X12079Y12079D01*
X12173Y12007D01*
X12283Y11962D01*
X12400Y11946D01*
X12600Y11946D01*
X12717Y11962D01*
X12827Y12007D01*
X12921Y12079D01*
X12972Y12145D01*
X13095Y12145D01*
X13095Y11486D01*
X13045Y11482D01*
X13038Y11533D01*
X12993Y11643D01*
X12921Y11737D01*
X12827Y11809D01*
X12717Y11854D01*
X12600Y11870D01*
X12550Y11870D01*
X12550Y11416D01*
X12550Y10962D01*
X12600Y10962D01*
X12717Y10977D01*
X12827Y11023D01*
X12921Y11095D01*
X12993Y11189D01*
X13038Y11298D01*
X13045Y11349D01*
X13095Y11346D01*
X13095Y11150D01*
X13115Y11052D01*
X13170Y10970D01*
X13670Y10470D01*
X13695Y10453D01*
X13680Y10403D01*
X13050Y10403D01*
X13050Y10882D01*
X11950Y10882D01*
X11950Y9981D01*
X13050Y9981D01*
X13050Y10097D01*
X16436Y10097D01*
X16436Y9883D01*
X17364Y9883D01*
X17364Y10172D01*
X17437Y10245D01*
X17466Y10216D01*
X17549Y10182D01*
X17638Y10182D01*
X17721Y10216D01*
X17759Y10254D01*
X18976Y10254D01*
X19007Y10180D01*
X19079Y10086D01*
X19173Y10014D01*
X19283Y9968D01*
X19400Y9953D01*
X19600Y9953D01*
X19717Y9968D01*
X19827Y10014D01*
X19921Y10086D01*
X19993Y10180D01*
X20038Y10289D01*
X20054Y10407D01*
X20038Y10524D01*
X19993Y10634D01*
X19921Y10728D01*
X19827Y10800D01*
X19717Y10845D01*
X19600Y10861D01*
X19400Y10861D01*
X19283Y10845D01*
X19173Y10800D01*
X19079Y10728D01*
X19007Y10634D01*
X18976Y10560D01*
X18118Y10560D01*
X18109Y10609D01*
X18158Y10642D01*
X18508Y10992D01*
X18541Y11041D01*
X18553Y11100D01*
X18553Y12450D01*
X18541Y12509D01*
X18508Y12558D01*
X18403Y12663D01*
X18403Y12700D01*
X18391Y12759D01*
X18358Y12808D01*
X18058Y13108D01*
X18009Y13141D01*
X17955Y13152D01*
X17955Y13218D01*
X17145Y13218D01*
X17145Y12782D01*
X17927Y12782D01*
X17935Y12768D01*
X17906Y12718D01*
X17145Y12718D01*
X17145Y12282D01*
X17897Y12282D01*
X17897Y12218D01*
X17145Y12218D01*
X17145Y12204D01*
X17030Y12204D01*
X17030Y14095D01*
X18144Y14095D01*
X18546Y13693D01*
X18546Y13000D01*
X18562Y12922D01*
X18606Y12856D01*
X18964Y12498D01*
X18962Y12493D01*
X18946Y12375D01*
X18962Y12258D01*
X19007Y12148D01*
X19079Y12054D01*
X19173Y11982D01*
X19283Y11937D01*
X19400Y11921D01*
X19600Y11921D01*
X19717Y11937D01*
X19827Y11982D01*
X19921Y12054D01*
X19993Y12148D01*
X20038Y12258D01*
X20054Y12375D01*
X20038Y12493D01*
X19993Y12602D01*
X19921Y12696D01*
X19827Y12768D01*
X19717Y12814D01*
X19600Y12829D01*
X19400Y12829D01*
X19283Y12814D01*
X19242Y12797D01*
X18956Y13082D01*
X18960Y13116D01*
X18991Y13127D01*
X19011Y13128D01*
X19079Y13039D01*
X19173Y12966D01*
X19283Y12921D01*
X19400Y12906D01*
X19600Y12906D01*
X19717Y12921D01*
X19827Y12966D01*
X19921Y13039D01*
X19993Y13133D01*
X20038Y13242D01*
X20054Y13359D01*
X20038Y13477D01*
X19993Y13586D01*
X19921Y13680D01*
X19827Y13753D01*
X19717Y13798D01*
X19600Y13813D01*
X19400Y13813D01*
X19283Y13798D01*
X19173Y13753D01*
X19079Y13680D01*
X19007Y13586D01*
X19004Y13579D01*
X18954Y13589D01*
X18954Y13705D01*
X18986Y13752D01*
X19005Y13850D01*
X19004Y13855D01*
X19036Y13894D01*
X20050Y13894D01*
X20050Y14794D01*
X18950Y14794D01*
X18950Y14632D01*
X18904Y14612D01*
X18708Y14808D01*
X18659Y14841D01*
X18600Y14853D01*
X18600Y14853D02*
G37*
G36*
X18195Y13725D02*
X18105Y13725D01*
X18023Y13691D01*
X18005Y13673D01*
X17955Y13694D01*
X17955Y13718D01*
X17145Y13718D01*
X17145Y13282D01*
X17955Y13282D01*
X17955Y13306D01*
X18005Y13327D01*
X18023Y13309D01*
X18105Y13275D01*
X18195Y13275D01*
X18277Y13309D01*
X18341Y13373D01*
X18375Y13455D01*
X18375Y13545D01*
X18341Y13627D01*
X18277Y13691D01*
X18195Y13725D01*
X18195Y13725D02*
G37*
G36*
X15829Y13218D02*
X15019Y13218D01*
X15019Y13186D01*
X14956Y13144D01*
X14568Y12756D01*
X14518Y12763D01*
X14510Y12776D01*
X14426Y12860D01*
X14324Y12919D01*
X14209Y12950D01*
X14091Y12950D01*
X13976Y12919D01*
X13874Y12860D01*
X13790Y12776D01*
X13731Y12674D01*
X13700Y12559D01*
X13700Y12441D01*
X13731Y12326D01*
X13790Y12224D01*
X13874Y12140D01*
X13976Y12081D01*
X14091Y12050D01*
X14209Y12050D01*
X14324Y12081D01*
X14426Y12140D01*
X14510Y12224D01*
X14552Y12296D01*
X14600Y12296D01*
X14678Y12312D01*
X14744Y12356D01*
X14973Y12584D01*
X15019Y12565D01*
X15019Y12282D01*
X15829Y12282D01*
X15829Y12347D01*
X15935Y12347D01*
X15973Y12309D01*
X16055Y12275D01*
X16145Y12275D01*
X16227Y12309D01*
X16291Y12373D01*
X16325Y12455D01*
X16325Y12545D01*
X16291Y12627D01*
X16227Y12691D01*
X16145Y12725D01*
X16055Y12725D01*
X15973Y12691D01*
X15935Y12653D01*
X15829Y12653D01*
X15829Y12718D01*
X15215Y12718D01*
X15190Y12768D01*
X15200Y12782D01*
X15829Y12782D01*
X15829Y13218D01*
X15829Y13218D02*
G37*
G36*
X15829Y12218D02*
X15474Y12218D01*
X15474Y12050D01*
X15829Y12050D01*
X15829Y12218D01*
X15829Y12218D02*
G37*
G36*
X15374Y12218D02*
X15019Y12218D01*
X15019Y12050D01*
X15374Y12050D01*
X15374Y12218D01*
X15374Y12218D02*
G37*
G36*
X15829Y11950D02*
X15474Y11950D01*
X15474Y11782D01*
X15829Y11782D01*
X15829Y11950D01*
X15829Y11950D02*
G37*
G36*
X15374Y11950D02*
X15019Y11950D01*
X15019Y11782D01*
X15374Y11782D01*
X15374Y11950D01*
X15374Y11950D02*
G37*
G36*
X14209Y11950D02*
X14200Y11950D01*
X14200Y11550D01*
X14600Y11550D01*
X14600Y11559D01*
X14569Y11674D01*
X14510Y11776D01*
X14426Y11860D01*
X14324Y11919D01*
X14209Y11950D01*
X14209Y11950D02*
G37*
G36*
X14100Y11950D02*
X14091Y11950D01*
X13976Y11919D01*
X13874Y11860D01*
X13790Y11776D01*
X13731Y11674D01*
X13700Y11559D01*
X13700Y11550D01*
X14100Y11550D01*
X14100Y11950D01*
X14100Y11950D02*
G37*
G36*
X12450Y11870D02*
X12400Y11870D01*
X12283Y11854D01*
X12173Y11809D01*
X12079Y11737D01*
X12007Y11643D01*
X11962Y11533D01*
X11953Y11466D01*
X12450Y11466D01*
X12450Y11870D01*
X12450Y11870D02*
G37*
G36*
X19600Y11845D02*
X19550Y11845D01*
X19550Y11441D01*
X20047Y11441D01*
X20038Y11508D01*
X19993Y11618D01*
X19921Y11712D01*
X19827Y11784D01*
X19717Y11829D01*
X19600Y11845D01*
X19600Y11845D02*
G37*
G36*
X19450Y11845D02*
X19400Y11845D01*
X19283Y11829D01*
X19173Y11784D01*
X19079Y11712D01*
X19007Y11618D01*
X18962Y11508D01*
X18953Y11441D01*
X19450Y11441D01*
X19450Y11845D01*
X19450Y11845D02*
G37*
G36*
X16452Y11477D02*
X16274Y11477D01*
X16274Y11250D01*
X16452Y11250D01*
X16452Y11477D01*
X16452Y11477D02*
G37*
G36*
X16174Y11477D02*
X15996Y11477D01*
X15996Y11250D01*
X16174Y11250D01*
X16174Y11477D01*
X16174Y11477D02*
G37*
G36*
X14600Y11450D02*
X14200Y11450D01*
X14200Y11050D01*
X14209Y11050D01*
X14324Y11081D01*
X14426Y11140D01*
X14510Y11224D01*
X14569Y11326D01*
X14600Y11441D01*
X14600Y11450D01*
X14600Y11450D02*
G37*
G36*
X14100Y11450D02*
X13700Y11450D01*
X13700Y11441D01*
X13731Y11326D01*
X13790Y11224D01*
X13874Y11140D01*
X13976Y11081D01*
X14091Y11050D01*
X14100Y11050D01*
X14100Y11450D01*
X14100Y11450D02*
G37*
G36*
X12450Y11366D02*
X11953Y11366D01*
X11962Y11298D01*
X12007Y11189D01*
X12079Y11095D01*
X12173Y11023D01*
X12283Y10977D01*
X12400Y10962D01*
X12450Y10962D01*
X12450Y11366D01*
X12450Y11366D02*
G37*
G36*
X20047Y11341D02*
X19550Y11341D01*
X19550Y10937D01*
X19600Y10937D01*
X19717Y10953D01*
X19827Y10998D01*
X19921Y11070D01*
X19993Y11164D01*
X20038Y11273D01*
X20047Y11341D01*
X20047Y11341D02*
G37*
G36*
X19450Y11341D02*
X18953Y11341D01*
X18962Y11273D01*
X19007Y11164D01*
X19079Y11070D01*
X19173Y10998D01*
X19283Y10953D01*
X19400Y10937D01*
X19450Y10937D01*
X19450Y11341D01*
X19450Y11341D02*
G37*
%LPD*%
D11*
X17593Y10407D02*
X19500Y10407D01*
X17383Y10407D02*
X17593Y10407D01*
X17126Y10150D02*
X17383Y10407D01*
X17550Y13500D02*
X18150Y13500D01*
X18600Y14700D02*
X18956Y14344D01*
X19500Y14344D01*
X17050Y10750D02*
X18050Y10750D01*
X18400Y11100D01*
X16699Y10399D02*
X17050Y10750D01*
X16699Y10125D02*
X16699Y10399D01*
X12400Y10250D02*
X16624Y10250D01*
X18400Y11100D02*
X18400Y12450D01*
X18250Y12600D02*
X18400Y12450D01*
X18250Y12600D02*
X18250Y12700D01*
X17950Y13000D02*
X18250Y12700D01*
X17550Y13000D02*
X17950Y13000D01*
X16624Y10250D02*
X16699Y10125D01*
X18050Y11550D02*
X18050Y12400D01*
X17750Y11250D02*
X18050Y11550D01*
X12500Y13187D02*
X12837Y13187D01*
X12500Y14500D02*
X12631Y14369D01*
X12963Y14700D02*
X18600Y14700D01*
X12631Y14369D02*
X12963Y14700D01*
X12500Y14369D02*
X12631Y14369D01*
X12750Y14250D01*
X15424Y12500D02*
X16100Y12500D01*
X12500Y13384D02*
X12684Y13384D01*
X17950Y12500D02*
X18050Y12400D01*
X17550Y12500D02*
X17950Y12500D01*
D14*
X17550Y12000D02*
D03*
X17550Y12500D02*
D03*
X17550Y13000D02*
D03*
X17550Y13500D02*
D03*
X15424Y12000D02*
D03*
X15424Y12500D02*
D03*
X15424Y13000D02*
D03*
X15424Y13500D02*
D03*
D15*
X16674Y10150D02*
D03*
X17126Y10150D02*
D03*
D16*
X16776Y11200D02*
D03*
X16224Y11200D02*
D03*
D17*
X17750Y11250D02*
D03*
D27*
X18750Y13000D02*
X18750Y13850D01*
X16776Y12000D02*
X17550Y12000D01*
X19375Y12375D02*
X19500Y12375D01*
X18750Y13000D02*
X19375Y12375D01*
X15424Y13500D02*
X15424Y13876D01*
X15150Y14150D02*
X15424Y13876D01*
X13450Y14150D02*
X15150Y14150D01*
X16224Y11300D02*
X16224Y11626D01*
X15850Y12000D02*
X16224Y11626D01*
X15424Y12000D02*
X15850Y12000D01*
X12684Y13384D02*
X13450Y14150D01*
X15100Y12000D02*
X15424Y12000D01*
X14600Y11500D02*
X15100Y12000D01*
X14150Y11500D02*
X14600Y11500D01*
X15100Y13000D02*
X15424Y13000D01*
X14600Y12500D02*
X15100Y13000D01*
X14150Y12500D02*
X14600Y12500D01*
D28*
X18250Y14350D02*
X18750Y13850D01*
X16900Y14350D02*
X18250Y14350D01*
X16776Y14226D02*
X16900Y14350D01*
X16776Y12000D02*
X16776Y14226D01*
X16776Y11200D02*
X16776Y12000D01*
X13850Y10650D02*
X16400Y10650D01*
X13350Y11150D02*
X13850Y10650D01*
X13350Y11150D02*
X13350Y12400D01*
X12500Y12400D02*
X13350Y12400D01*
X16400Y10650D02*
X16776Y11026D01*
X13600Y13500D02*
X14150Y13500D01*
X13350Y13250D02*
X13600Y13500D01*
X13350Y12400D02*
X13350Y13250D01*
X16776Y11026D02*
X16776Y11200D01*
D29*
X19500Y10407D02*
D03*
X19500Y11391D02*
D03*
X19500Y13359D02*
D03*
X19500Y12375D02*
D03*
X12500Y12400D02*
D03*
X12500Y11416D02*
D03*
X12500Y13384D02*
D03*
X12500Y14369D02*
D03*
D30*
X19500Y14344D02*
D03*
X12500Y10431D02*
D03*
D31*
X14150Y13500D02*
D03*
D32*
X14150Y11500D02*
D03*
X14150Y12500D02*
D03*
D33*
X17593Y10407D02*
D03*
X18150Y13500D02*
D03*
X16100Y12500D02*
D03*
M02*
